 <svg version="1.0" xmlns="http://www.w3.org/2000/svg" width="700.000000pt" height="462.000000pt" viewBox="0 0 700.000000 462.000000" preserveAspectRatio="xMidYMid meet">
<metadata>
Created by potrace 1.12, written by Peter Selinger 2001-2015
</metadata>
<g transform="translate(0.000000,462.000000) scale(0.100000,-0.100000)" fill="#000000" stroke="none">
<path d="M2581 4538 c-46 -9 -62 -18 -106 -62 -57 -57 -75 -103 -75 -189 0
-60 5 -73 82 -192 56 -88 131 -177 276 -330 109 -114 219 -251 272 -340 13
-22 40 -62 60 -90 19 -27 40 -57 45 -66 6 -9 24 -36 41 -60 59 -82 114 -187
114 -217 0 -10 -18 -47 -40 -81 -22 -34 -40 -64 -40 -67 0 -3 -13 -24 -28 -47
-15 -23 -39 -64 -52 -92 -14 -27 -45 -86 -70 -130 -25 -44 -56 -102 -68 -130
-35 -77 -37 -80 -72 -85 -25 -4 -41 -16 -65 -49 -39 -56 -53 -61 -57 -20 -2
18 -11 37 -21 43 -16 10 -30 -1 -98 -74 -44 -47 -95 -105 -114 -130 -114 -145
-135 -173 -135 -181 0 -5 -7 -9 -15 -9 -22 0 -18 25 16 99 17 36 34 75 39 86
5 11 32 69 60 129 57 122 61 159 19 164 -23 3 -35 -8 -85 -77 -33 -44 -84
-119 -114 -167 -98 -155 -189 -284 -201 -284 -13 0 -11 12 11 58 11 22 20 47
20 55 0 8 8 25 18 38 10 13 26 43 36 67 11 23 25 47 33 53 7 6 13 20 13 30 0
17 26 85 51 131 13 25 11 45 -7 73 -21 32 -32 31 -77 -6 -38 -32 -147 -170
-173 -221 -9 -16 -23 -28 -34 -28 -26 0 -27 39 -1 94 10 23 24 61 31 86 6 25
16 59 21 76 5 17 9 39 9 50 0 24 37 85 62 103 11 7 61 57 112 109 50 52 103
106 119 120 28 26 37 62 14 62 -6 0 -59 -46 -115 -101 -116 -114 -142 -121
-102 -27 12 29 29 69 37 88 8 19 19 43 24 52 5 10 9 27 9 38 0 10 9 35 20 55
11 20 20 41 20 48 0 7 13 39 30 72 16 33 30 67 30 75 0 9 4 20 8 25 5 6 15 26
22 45 8 19 23 58 36 85 56 128 67 155 89 220 45 134 43 195 -6 195 -26 0 -52
-32 -99 -119 -62 -117 -106 -194 -151 -268 -42 -69 -64 -107 -114 -198 -15
-27 -31 -54 -35 -60 -14 -17 -72 -126 -145 -269 -38 -76 -74 -139 -80 -140 -5
0 -13 31 -16 69 -17 181 -50 368 -81 450 -29 76 -92 168 -142 207 -94 72 -192
99 -389 105 -116 3 -152 1 -225 -17 -48 -12 -107 -31 -132 -42 -24 -11 -54
-24 -65 -28 -102 -40 -380 -263 -471 -379 -119 -151 -243 -368 -279 -491 -9
-30 -21 -91 -26 -135 -12 -90 0 -136 54 -212 54 -76 178 -144 332 -182 81 -20
109 -22 290 -18 206 4 275 13 425 56 19 5 82 21 140 36 58 14 117 32 131 40
14 8 48 21 75 30 27 9 59 21 71 27 29 14 55 4 46 -19 -4 -9 -54 -86 -112 -170
-94 -136 -350 -524 -376 -571 -17 -30 -58 -86 -84 -114 -13 -14 -37 -50 -53
-79 l-29 -52 20 -21 21 -20 24 23 c14 13 55 69 91 125 99 151 205 317 205 321
0 8 89 149 154 243 39 57 77 114 85 125 8 12 35 53 60 91 25 37 59 93 75 123
21 39 40 60 68 74 68 35 68 34 68 -187 0 -227 14 -189 -139 -368 -226 -265
-374 -459 -369 -485 2 -9 12 -17 23 -19 16 -2 38 20 90 89 152 201 355 441
370 436 15 -6 7 -130 -12 -180 -17 -45 -31 -113 -39 -188 -4 -34 -2 -48 10
-58 47 -39 78 36 106 254 26 201 45 296 69 350 10 22 58 95 107 163 49 67 99
137 112 155 38 53 50 63 63 50 8 -8 6 -21 -9 -50 -11 -21 -43 -87 -72 -148
-29 -60 -90 -186 -136 -280 -89 -183 -107 -240 -80 -251 11 -4 27 2 42 17 29
27 227 301 330 458 67 102 94 129 94 97 0 -16 -3 -24 -33 -81 -18 -35 -48
-109 -83 -204 -22 -60 -22 -66 -7 -83 9 -10 22 -18 28 -18 18 0 76 67 175 204
100 137 148 196 161 196 16 0 9 -45 -13 -80 -11 -19 -37 -64 -55 -100 -19 -36
-48 -82 -65 -103 -34 -43 -35 -80 -2 -85 15 -2 34 14 72 59 28 34 59 78 69 98
10 19 33 51 52 71 18 19 42 52 52 72 20 39 33 47 41 25 3 -6 -1 -52 -8 -102
-46 -316 -54 -461 -33 -598 14 -88 30 -121 83 -169 34 -32 39 -41 30 -55 -6
-10 -24 -19 -40 -21 -16 -2 -33 -8 -38 -13 -6 -5 -25 -9 -43 -9 -18 0 -41 -4
-51 -9 -9 -5 -37 -15 -62 -22 -25 -7 -49 -16 -54 -21 -6 -4 -20 -8 -31 -8 -12
0 -40 -9 -63 -20 -22 -11 -55 -20 -72 -20 -16 0 -39 -5 -50 -10 -11 -6 -29
-14 -40 -20 -11 -5 -29 -10 -39 -10 -11 0 -23 -4 -26 -10 -3 -5 -13 -10 -21
-10 -8 0 -34 -9 -56 -20 -23 -11 -50 -20 -59 -20 -10 0 -21 -5 -24 -10 -3 -6
-16 -10 -29 -10 -12 0 -26 -4 -32 -9 -5 -4 -30 -16 -56 -26 -26 -10 -53 -24
-59 -31 -6 -8 -22 -14 -35 -14 -12 0 -26 -4 -29 -10 -3 -5 -16 -10 -28 -11
-12 0 -44 -14 -72 -30 -27 -15 -61 -34 -75 -40 -146 -67 -422 -220 -461 -255
-14 -13 -30 -24 -36 -24 -6 0 -16 -7 -23 -15 -7 -8 -31 -23 -54 -33 -22 -11
-47 -26 -55 -35 -7 -10 -19 -17 -25 -17 -7 0 -30 -18 -51 -40 -21 -22 -44 -40
-50 -40 -18 0 -149 -126 -138 -133 9 -6 22 2 83 50 15 13 32 23 36 23 5 0 26
18 47 40 20 22 43 40 51 40 7 0 19 7 27 16 14 17 112 84 123 84 4 0 39 22 79
48 40 26 83 53 97 60 14 7 43 26 65 42 22 16 47 29 56 30 9 0 27 8 40 18 23
18 112 62 125 62 3 0 18 8 32 18 15 10 43 25 62 32 19 8 51 23 70 35 19 11 53
27 75 34 22 7 47 19 55 26 18 14 100 45 121 45 14 0 80 27 121 50 10 6 27 10
37 10 11 0 23 5 26 10 3 6 17 10 31 10 14 0 42 9 64 20 22 11 48 20 59 20 11
0 30 4 43 9 13 5 43 15 68 22 25 7 49 16 54 21 6 4 22 8 37 8 15 0 31 5 34 10
3 6 21 10 39 10 17 0 36 4 42 8 5 5 41 15 79 22 39 7 77 16 85 21 8 4 33 12
55 17 22 6 58 16 81 22 22 7 54 13 70 14 16 2 36 5 44 8 44 16 102 28 138 28
22 0 43 4 46 9 3 4 27 11 53 14 27 4 73 11 103 17 67 13 158 27 265 40 44 5
154 18 244 29 109 14 168 17 176 11 7 -6 15 -46 18 -90 8 -105 36 -170 71
-170 30 0 32 7 12 35 -8 12 -17 63 -21 127 l-7 107 23 5 c99 20 412 30 904 30
499 0 568 -2 740 -22 269 -31 354 -42 405 -52 25 -5 74 -14 110 -21 36 -6 90
-18 120 -26 30 -9 67 -18 83 -20 15 -3 30 -9 33 -14 3 -5 15 -9 28 -9 24 0
143 -45 164 -62 17 -15 15 -35 -5 -43 -10 -4 -40 -11 -68 -16 -27 -6 -70 -14
-95 -20 -207 -46 -458 -73 -845 -89 -132 -6 -279 -15 -326 -20 -47 -6 -144
-10 -215 -10 -71 0 -183 -5 -249 -10 -66 -5 -201 -10 -300 -11 -99 -2 -186 -7
-193 -12 -6 -5 -33 -7 -60 -4 -26 3 -108 1 -182 -4 -74 -5 -146 -9 -160 -10
-80 -4 -579 -41 -650 -49 -148 -16 -279 -30 -465 -51 -99 -11 -259 -29 -355
-39 -96 -11 -214 -24 -261 -30 -171 -20 -319 -8 -246 19 63 24 269 66 492 100
160 25 287 50 430 86 117 29 150 45 150 71 0 26 -34 23 -175 -16 -122 -33
-132 -35 -335 -69 -450 -75 -522 -90 -675 -146 -79 -29 -110 -49 -110 -72 0
-28 53 -37 235 -36 172 0 268 7 510 39 61 8 153 19 205 25 52 6 131 15 175 20
44 5 127 13 185 19 58 5 141 14 185 20 85 12 232 24 460 40 77 5 178 14 225
20 47 5 180 12 295 15 116 3 217 9 225 12 17 6 125 11 330 17 74 2 142 6 150
9 16 6 219 14 585 23 127 3 234 10 240 15 5 5 63 9 130 9 67 0 125 4 131 9 5
6 56 12 114 15 143 7 221 15 245 26 19 9 57 14 175 26 30 3 59 10 65 15 5 5
27 9 50 9 54 1 109 29 113 57 9 64 -180 152 -428 200 -14 2 -34 8 -45 13 -11
5 -45 12 -75 15 -78 8 -193 22 -275 35 -38 6 -108 13 -155 16 -47 3 -94 9
-105 14 -69 32 -844 39 -1508 14 -130 -5 -148 -4 -153 11 -9 22 8 144 45 325
5 25 12 62 16 82 9 46 25 48 45 5 13 -29 19 -32 56 -31 49 1 118 49 245 171
47 46 92 83 100 83 8 -1 30 -14 49 -30 39 -34 49 -35 123 -16 91 24 187 81
284 168 24 21 47 38 52 38 6 0 26 -9 46 -20 45 -25 112 -26 168 -1 23 11 70
21 103 23 52 3 72 11 126 46 72 47 167 142 242 242 76 103 96 104 96 6 0 -127
74 -225 196 -261 59 -17 140 -20 149 -5 3 6 17 10 30 10 13 0 27 5 30 10 3 6
13 10 21 10 46 0 164 138 164 191 0 49 -18 41 -64 -30 -43 -67 -106 -121 -140
-121 -8 0 -18 -4 -21 -10 -12 -19 -152 -12 -194 10 -79 40 -140 146 -128 222
14 91 67 209 132 299 36 48 43 88 18 96 -16 6 -56 -37 -150 -162 -136 -179
-219 -278 -306 -367 -87 -88 -113 -108 -141 -108 -26 0 -19 24 22 76 39 52 50
69 92 149 60 116 62 167 6 173 -21 3 -38 -9 -84 -55 -88 -87 -152 -212 -152
-293 0 -40 -11 -57 -57 -88 -35 -25 -121 -30 -141 -10 -21 21 -13 46 56 169
81 145 162 301 162 312 0 5 8 21 19 35 18 26 26 55 38 133 6 45 -19 89 -51 89
-29 0 -86 -48 -138 -118 -59 -77 -144 -229 -153 -272 -4 -19 -14 -48 -23 -65
-10 -20 -16 -66 -18 -147 -2 -79 -7 -124 -16 -137 -47 -67 -255 -191 -321
-191 -36 0 -67 25 -67 54 0 22 11 43 75 141 149 228 185 299 185 360 0 66 -37
86 -78 42 -12 -13 -22 -26 -22 -29 0 -4 -18 -34 -40 -66 -47 -71 -130 -238
-150 -302 -7 -25 -24 -65 -36 -90 -37 -76 -261 -280 -307 -280 -15 0 -17 5
-11 38 3 20 10 41 15 47 5 5 9 15 9 22 0 7 9 33 20 57 30 62 31 100 3 104 -15
2 -29 -7 -44 -27 -43 -58 -70 -34 -40 35 12 26 21 59 21 75 0 15 5 31 10 34 6
3 10 21 10 39 0 18 9 59 20 92 11 32 20 69 20 81 0 12 4 25 10 28 6 3 10 17
10 30 0 14 9 40 20 60 11 20 20 49 20 65 0 16 5 32 10 35 6 3 10 13 10 21 0 8
9 34 20 56 11 23 20 50 20 59 0 10 5 21 10 24 6 3 10 15 10 26 0 10 4 27 10
37 5 9 30 80 56 157 25 77 52 156 61 175 8 19 20 46 25 60 6 14 14 33 19 42 5
10 9 22 9 28 0 5 14 39 30 75 17 36 30 69 30 73 0 5 9 27 20 50 23 47 26 82 8
100 -20 20 -47 14 -65 -15 -10 -16 -38 -56 -63 -89 -107 -145 -141 -195 -171
-250 -18 -32 -40 -71 -51 -86 -10 -14 -18 -29 -18 -32 0 -4 -50 -91 -87 -151
-7 -11 -26 -47 -43 -80 -17 -33 -44 -85 -60 -115 -17 -30 -33 -69 -36 -87 -4
-19 -16 -41 -28 -51 -12 -9 -28 -26 -35 -37 -10 -17 -11 -10 -7 43 2 38 11 71
20 81 9 10 16 26 16 36 0 10 4 32 10 49 5 17 18 60 30 95 30 96 27 176 -9 232
-34 55 -106 102 -203 136 -65 22 -86 24 -193 21 -108 -4 -126 -7 -180 -33
-107 -52 -179 -113 -282 -238 -38 -47 -43 -44 -136 118 -9 16 -28 46 -42 65
-48 67 -94 135 -126 190 -57 96 -125 183 -235 300 -181 193 -268 300 -337 418
-32 54 -37 72 -37 124 0 82 31 137 95 167 24 11 60 21 78 21 18 0 43 7 55 16
18 12 20 19 12 35 -12 21 -33 22 -119 7z m2139 -1091 c0 -8 -3 -17 -7 -21 -4
-3 -12 -21 -19 -39 -6 -17 -30 -77 -53 -131 -22 -55 -41 -105 -41 -113 0 -7
-8 -32 -18 -56 -23 -51 -42 -109 -42 -125 0 -7 -8 -31 -19 -55 -10 -23 -33
-89 -51 -147 -17 -58 -36 -114 -40 -125 -4 -11 -18 -54 -30 -95 -12 -41 -26
-86 -30 -100 -8 -25 -23 -83 -42 -155 -6 -22 -14 -51 -18 -65 -5 -14 -18 -68
-29 -120 -34 -153 -41 -172 -86 -238 -58 -87 -146 -192 -161 -192 -6 0 -17 7
-24 15 -28 34 -70 2 -48 -37 47 -84 80 -77 175 36 34 39 46 33 40 -21 -10 -94
-39 -278 -47 -293 -7 -15 -18 -17 -245 -39 -49 -5 -117 -14 -149 -20 -32 -6
-63 -8 -68 -5 -5 3 -14 1 -21 -4 -7 -6 -37 -13 -67 -16 -53 -5 -143 -18 -223
-32 -20 -3 -40 -10 -43 -15 -6 -11 -74 -12 -74 -1 0 12 14 27 46 50 63 44 157
178 195 277 9 22 35 124 52 200 15 64 14 440 -1 560 -6 50 -14 115 -17 145 -4
30 -10 64 -15 75 -5 11 -11 36 -13 55 -6 47 -36 161 -48 182 -5 10 -9 24 -9
31 0 7 -13 39 -30 72 -16 33 -30 70 -30 83 0 34 47 97 133 179 119 113 197
143 369 143 104 0 143 -8 213 -43 99 -49 126 -113 100 -232 -8 -38 -20 -90
-25 -115 -5 -25 -21 -83 -35 -130 -14 -47 -33 -110 -41 -140 -59 -217 -132
-396 -291 -711 -102 -204 -123 -252 -113 -264 20 -25 49 -17 70 17 35 58 157
309 205 423 50 118 208 440 331 675 42 80 83 159 91 175 9 17 21 37 28 45 7 8
30 49 52 90 39 75 52 96 173 283 57 88 90 119 90 84z m-2300 -21 c0 -8 -4 -18
-10 -21 -5 -3 -10 -13 -10 -20 0 -8 -13 -44 -30 -80 -16 -36 -30 -74 -30 -83
0 -10 -11 -33 -24 -51 -14 -18 -32 -59 -42 -90 -9 -31 -22 -69 -29 -86 -7 -16
-21 -50 -30 -75 -9 -25 -20 -54 -25 -65 -4 -11 -13 -36 -20 -55 -7 -19 -21
-54 -31 -77 -11 -24 -19 -49 -19 -57 0 -17 -40 -116 -54 -135 -6 -7 -43 -40
-84 -73 -60 -49 -75 -58 -87 -48 -33 28 -17 76 114 332 70 139 138 270 150
291 11 20 31 54 42 75 12 20 30 49 40 64 11 14 19 31 19 38 0 6 13 30 28 53
15 23 34 56 42 72 19 40 69 105 81 105 5 0 9 -6 9 -14z m-1002 -7 c26 -6 55
-15 64 -20 10 -5 24 -9 32 -9 46 0 171 -105 203 -171 18 -37 40 -91 53 -129
28 -85 66 -468 54 -545 -4 -21 -28 -77 -55 -125 -26 -47 -55 -97 -63 -112 -10
-18 -39 -39 -83 -59 -37 -18 -76 -36 -85 -40 -10 -5 -29 -9 -42 -9 -14 0 -28
-4 -31 -10 -3 -5 -16 -10 -29 -10 -12 0 -26 -3 -30 -7 -11 -11 -79 -33 -104
-33 -12 0 -30 -4 -40 -9 -22 -12 -140 -43 -227 -60 -132 -26 -167 -32 -265
-41 -138 -13 -298 5 -395 46 -100 41 -131 59 -177 102 -68 63 -78 87 -78 178
0 78 8 114 42 191 10 24 18 47 18 52 0 12 67 146 108 216 20 33 59 90 88 126
62 78 256 264 334 319 67 48 219 123 280 140 25 7 54 16 65 20 29 13 308 12
363 -1z m1919 -521 c5 -7 15 -29 22 -48 7 -19 17 -44 21 -55 4 -11 13 -40 20
-65 7 -25 16 -56 20 -70 7 -23 20 -85 40 -190 31 -164 38 -601 12 -725 -6 -27
-15 -70 -20 -95 -27 -145 -160 -313 -304 -383 -64 -32 -90 -39 -162 -44 l-86
-6 -33 35 c-49 52 -59 94 -64 276 -6 186 -4 192 64 192 105 0 223 96 381 310
50 67 73 150 43 150 -5 0 -38 -44 -74 -98 -94 -144 -212 -256 -313 -298 -81
-34 -84 60 -9 291 67 206 158 400 333 710 45 79 79 125 93 125 3 0 11 -6 16
-12z m2146 -82 c-4 -50 -213 -444 -241 -454 -31 -10 -3 131 45 223 40 78 127
220 151 248 23 26 47 17 45 -17z m167 -306 c0 -15 -71 -120 -81 -120 -11 0 0
28 36 83 29 45 45 58 45 37z m-3641 -216 c-17 -55 -35 -107 -40 -116 -5 -10
-12 -43 -15 -75 -9 -77 -20 -103 -43 -103 -26 0 -27 14 -21 177 l5 142 44 38
c101 87 113 75 70 -63z m-184 66 c0 -7 -6 -15 -12 -17 -8 -3 -13 4 -13 17 0
13 5 20 13 18 6 -3 12 -11 12 -18z"></path>
<path d="M5504 4248 c-46 -51 -76 -97 -69 -108 11 -18 44 -10 56 13 25 47 51
67 91 67 22 0 47 -4 56 -9 9 -5 42 -10 72 -12 48 -4 55 -2 55 14 0 20 -59 47
-102 47 -12 0 -25 5 -28 10 -3 6 -28 10 -54 10 -40 0 -51 -5 -77 -32z"></path>
</g>
</svg>