<?xml version="1.0" encoding="UTF-8" standalone="no"?>
<!-- Created with Inkscape (http://www.inkscape.org/) -->

<svg
   width="2697.7551mm"
   height="740.44763mm"
   viewBox="0 0 2697.7551 740.44763"
   version="1.1"
   id="svg210"
   inkscape:version="1.1 (c68e22c387, 2021-05-23)"
   sodipodi:docname="logo-light.svg"
   xmlns:inkscape="http://www.inkscape.org/namespaces/inkscape"
   xmlns:sodipodi="http://sodipodi.sourceforge.net/DTD/sodipodi-0.dtd"
   xmlns="http://www.w3.org/2000/svg"
   xmlns:svg="http://www.w3.org/2000/svg">
  <sodipodi:namedview
     id="namedview212"
     pagecolor="#505050"
     bordercolor="#eeeeee"
     borderopacity="1"
     inkscape:pageshadow="0"
     inkscape:pageopacity="0"
     inkscape:pagecheckerboard="false"
     inkscape:document-units="mm"
     showgrid="false"
     fit-margin-top="0"
     fit-margin-left="0"
     fit-margin-right="0"
     fit-margin-bottom="0"
     inkscape:zoom="0.039370511"
     inkscape:cx="4851.3467"
     inkscape:cy="952.48954"
     inkscape:window-width="1366"
     inkscape:window-height="706"
     inkscape:window-x="-8"
     inkscape:window-y="-8"
     inkscape:window-maximized="1"
     inkscape:current-layer="layer1" />
  <defs
     id="defs207" />
  <g
     inkscape:label="Layer 1"
     inkscape:groupmode="layer"
     id="layer1"
     transform="translate(1176.6176,101.14176)">
    <g
       id="g985-5-3-6"
       inkscape:export-xdpi="96"
       inkscape:export-ydpi="96"
       transform="translate(-1874.4,279.7334)">
      <g
         id="g958-0-8-0"
         transform="matrix(3.3535076,0.67633145,-0.67633145,3.3535076,18.190434,-643.93882)">
        <path
           id="path48-7-7-6-8-9-4"
           style="fill:#945522;fill-opacity:1;stroke-width:0.264583"
           d="m 259.29129,99.620484 c 5.75799,12.270006 22.32552,10.055716 30.27152,22.245356 0.33111,0.44378 0.48804,0.24477 1.83455,-2.32514 2.4465,-4.66929 6.13242,-9.79375 8.5192,-11.84351 1.7358,-1.49073 4.25708,-2.52992 9.58624,-3.95155 5.85626,-1.56225 15.51174,-4.598586 18.29824,-5.753988 3.27739,-1.358926 6.27048,-3.072364 6.9986,-4.006695 0.76406,-0.98047 1.86739,-2.980309 2.95919,-5.364365 l 0.79264,-1.731166 -0.65534,-0.21583 c -0.36045,-0.118741 -2.47255,-0.136568 -4.69333,-0.03973 -3.67775,0.160391 -4.12113,0.133206 -4.97675,-0.30429 -2.12275,-1.085467 -2.07947,-2.651009 0.20165,-7.237996 0.76208,-1.532443 3.0706,-6.245913 5.1295,-10.473902 4.84113,-9.941388 8.80201,-17.698208 11.56073,-22.640071 2.70814,-4.851228 3.01865,-5.597819 3.16532,-7.596504 0.12805,-1.755186 -0.1088,-2.500964 -1.23687,-3.89199 -3.54261,-4.368388 -7.99626,-0.890058 -14.09153,11.005993 -0.79291,1.547517 -1.70997,3.062819 -2.03799,3.367382 -0.80967,0.751699 -1.94852,0.633365 -2.74348,-0.285611 -0.55265,-0.638874 -0.60019,-0.87607 -0.38374,-1.899231 0.37166,-1.756878 1.76667,-4.432178 4.58376,-8.789611 3.37987,-5.227937 4.60357,-7.309418 4.90881,-8.348525 0.72838,-2.479548 -1.25719,-5.452519 -3.75081,-5.61638 -2.99289,-0.196796 -5.85001,2.556666 -9.69514,9.342927 -3.45814,6.103265 -3.63571,6.388298 -4.45393,7.146247 -0.87522,0.810749 -1.75041,0.872423 -2.59662,0.183523 -1.12966,-0.919646 -0.38795,-2.857697 3.5523,-9.277748 2.89201,-4.71213 3.73719,-6.657286 3.71863,-8.562142 -0.016,-1.646696 -0.55615,-2.632503 -1.95827,-3.574783 -1.2228,-0.821736 -2.40579,-0.932776 -3.7763,-0.354166 -1.87244,0.79051 -3.10967,2.463423 -6.91892,9.35528 -2.67875,4.846551 -3.69564,5.976166 -5.02511,5.58167 -1.0501,-0.311603 -2.10332,-1.749371 -1.82479,-2.491084 0.1139,-0.303427 1.00822,-2.050649 1.98722,-3.882957 3.50485,-6.559671 3.83588,-9.021046 1.38013,-10.262425 -1.62693,-0.822416 -2.05504,-0.682148 -4.5455,1.489571 -2.38162,2.076792 -2.32116,1.995331 -7.81283,10.509728 -0.94401,1.463626 -2.99299,4.377995 -4.55359,6.475848 -7.30435,9.818958 -8.69682,12.696107 -12.52937,25.893655 -1.0865,3.741434 -3.19762,10.551227 -4.69165,15.132892 -1.49402,4.581665 -14.47626,22.713698 -14.49636,22.991338 z"
           sodipodi:nodetypes="ccsssssccsssssscsssssssssssssssssssssssssc" />
        <path
           id="path48-7-7-0-4-7"
           style="fill:#dfb773;fill-opacity:1;stroke-width:0.999999"
           d="m 1332.451,184.70328 c -44.6827,25.05373 -31.8148,86.90357 -75.5975,120.18344 -1.5825,1.36928 -0.7895,1.9066 9.2656,6.28125 18.2692,7.94838 38.5925,20.44475 46.9707,28.88281 6.0932,6.13659 10.6986,15.3574 17.5118,35.0586 7.4871,21.64991 21.5678,57.21931 26.6836,67.4082 6.017,11.98386 13.2928,22.79926 17.0136,25.28906 3.9045,2.61271 11.7443,6.22618 21.0293,9.69141 l 6.7422,2.51562 0.6348,-2.52929 c 0.3491,-1.39121 -0.1597,-9.35797 -1.1309,-17.70313 -1.6082,-13.82014 -1.6267,-15.49898 -0.2109,-18.84375 3.5126,-8.29822 9.426,-8.56225 27.3398,-1.21484 5.9848,2.45465 24.3829,9.87084 40.8828,16.47851 38.7967,15.53677 69.1181,28.35136 88.5,37.40235 19.0265,8.88498 21.9256,9.85181 29.5,9.85937 6.6514,0.005 9.3981,-1.09253 14.334,-5.72461 15.5007,-14.54646 1.1733,-30.38609 -45.334,-50.11719 -6.05,-2.56675 -12.0124,-5.61023 -13.25,-6.76367 -3.0546,-2.84708 -2.9193,-7.17247 0.3282,-10.41992 2.2575,-2.25766 3.1387,-2.50157 7.0547,-1.96484 6.7243,0.92167 17.1899,5.45037 34.3847,14.88086 20.6298,11.31443 28.8102,15.35946 32.8106,16.22656 9.5458,2.06914 20.2111,-6.22706 20.1484,-15.67188 -0.075,-11.33586 -11.2341,-21.35496 -37.8652,-33.99804 -23.9509,-11.37064 -25.0738,-11.96223 -28.1543,-14.83985 -3.2951,-3.07808 -3.7664,-6.3604 -1.4004,-9.73828 3.1585,-4.50939 10.6667,-2.24224 35.9433,10.85938 18.5523,9.6161 26.1155,12.27139 33.2911,11.68164 6.2031,-0.50982 9.7719,-2.81479 12.9414,-8.35743 2.764,-4.83378 2.8598,-9.32355 0.3046,-14.33203 -3.4909,-6.84279 -10.1348,-11.05024 -37.1542,-23.52929 -19.0008,-8.77553 -23.5366,-12.30059 -22.4122,-17.41992 0.8881,-4.04353 6.0206,-8.40616 8.8926,-7.5586 1.1749,0.34674 8.0054,3.24115 15.1797,6.43164 25.6841,11.42223 35.053,11.99845 39.0625,2.40235 2.6563,-6.35736 2.0107,-7.93295 -6.8555,-16.72852 -8.4787,-8.41126 -8.1551,-8.20558 -41.75,-26.58398 -5.775,-3.15924 -17.3203,-10.08798 -25.6543,-15.39844 -39.0073,-24.85572 -50.2332,-29.31979 -101.0293,-40.16602 -14.4004,-3.07487 -40.6471,-9.17484 -58.3261,-13.55664 -17.679,-4.38183 -89.5731,-48.37289 -90.6252,-48.37289 z"
           transform="scale(0.26458333)"
           sodipodi:nodetypes="ccsssssccsssssscsssssssssssssssssssssssssc" />
        <path
           id="path48-7-7-62-6-3-9"
           style="fill:#4a351a;fill-opacity:1;stroke-width:0.264583"
           d="m 409.17346,138.84594 c -6.6288,-11.8223 -22.99323,-8.41767 -31.79853,-20.00184 -0.36229,-0.4187 -0.50446,-0.20889 -1.66192,2.45153 -2.10301,4.83372 -5.40934,10.21093 -7.64191,12.42766 -1.62364,1.61216 -4.06331,2.83067 -9.27592,4.63333 -5.7282,1.98096 -15.13927,5.70648 -17.83508,7.06004 -3.17073,1.59199 -6.03231,3.51705 -6.69107,4.50151 -0.69128,1.03307 -1.64734,3.10735 -2.56418,5.564 l -0.6656,1.78388 0.66921,0.16795 c 0.36809,0.0924 2.47597,-0.0422 4.68396,-0.29921 3.65657,-0.42551 4.10077,-0.4304 4.98574,-0.0558 2.19557,0.92937 2.26543,2.49396 0.32142,7.23365 -0.64946,1.58348 -2.61166,6.45131 -4.35993,10.81691 -4.11078,10.26496 -7.5013,18.2875 -9.89604,23.41562 -2.35082,5.0341 -2.60663,5.80115 -2.60863,7.80521 -10e-4,1.75985 0.28907,2.48658 1.51464,3.79254 3.84875,4.10123 8.03965,0.31044 13.26017,-11.99462 0.67912,-1.60073 1.48437,-3.17828 1.78956,-3.50573 0.75329,-0.8082 1.89771,-0.7724 2.75693,0.0868 0.59734,0.59729 0.66188,0.83044 0.51987,1.86655 -0.24386,1.77914 -1.44208,4.54816 -3.93723,9.09762 -2.99361,5.4583 -4.06386,7.6227 -4.29328,8.68114 -0.54746,2.52566 1.64758,5.34752 4.14652,5.33093 2.99928,-0.0198 5.65017,-2.97236 8.99531,-10.0185 3.00849,-6.33701 3.16501,-6.63411 3.92638,-7.44916 0.81441,-0.87183 1.68286,-0.99653 2.57659,-0.37052 1.19311,0.83568 0.59326,2.82223 -2.87321,9.51 -2.54426,4.90862 -3.24681,6.90972 -3.09077,8.80827 0.13489,1.64123 0.74475,2.58548 2.21124,3.42407 1.27893,0.73131 2.46685,0.75666 3.79201,0.0806 1.81049,-0.92364 2.92371,-2.6815 6.22546,-9.83039 2.32186,-5.02729 3.25453,-6.22739 4.60902,-5.92989 1.06985,0.23498 2.22413,1.59295 1.99988,2.35283 -0.0917,0.31086 -0.85755,2.1181 -1.7017,4.0163 -3.02214,6.79558 -3.17459,9.27444 -0.63563,10.33529 1.68206,0.70281 2.09893,0.53199 4.42609,-1.81386 2.22548,-2.24332 2.17106,-2.1577 7.03368,-11.04635 0.83588,-1.52797 2.66911,-4.58266 4.07417,-6.7877 6.57641,-10.32068 7.75753,-13.29087 10.62726,-26.73067 0.81356,-3.8101 2.42751,-10.75454 3.58686,-15.43211 1.15936,-4.67757 12.79866,-23.69955 12.79866,-23.97792 z"
           sodipodi:nodetypes="ccsssssccsssssscsssssssssssssssssssssssssc" />
        <path
           id="path48-7-7-4-7-6-3"
           style="fill:#8e6228;fill-opacity:1;stroke-width:0.264583"
           d="m 317.08894,195.40949 c 12.12318,-6.06105 9.49794,-22.56845 21.48641,-30.81484 0.4354,-0.34204 0.23257,-0.49399 -2.37001,-1.77623 -4.72862,-2.32973 -9.94308,-5.88719 -12.05151,-8.22231 -1.5334,-1.69822 -2.63492,-4.19291 -4.18851,-9.4851 -1.70725,-5.81565 -4.98256,-15.39271 -6.20683,-18.14964 -1.43993,-3.24262 -3.2272,-6.19222 -4.17934,-6.89689 -0.99914,-0.73947 -3.02578,-1.79276 -5.43622,-2.825 l -1.75033,-0.74939 -0.19948,0.6605 c -0.10974,0.3633 -0.0752,2.47518 0.0769,4.69287 0.25173,3.67263 0.23556,4.11656 -0.18056,4.98278 -1.03238,2.14905 -2.59852,2.14468 -7.24075,-0.0218 -1.55092,-0.72378 -6.32029,-2.91448 -10.59812,-4.8677 -10.0586,-4.59264 -17.91144,-8.35958 -22.9203,-10.99467 -4.91703,-2.58677 -5.67109,-2.87863 -7.67281,-2.97561 -1.75782,-0.0844 -2.49748,0.17089 -3.86006,1.33319 -4.27903,3.65005 -0.69112,8.0159 11.35269,13.81374 1.56675,0.75422 3.10436,1.63334 3.41698,1.95369 0.77159,0.79075 0.68159,1.93219 -0.21737,2.74973 -0.62492,0.56836 -0.86087,0.62177 -1.88909,0.43082 -1.76558,-0.32791 -4.4747,-1.65602 -8.90079,-4.36398 -5.31029,-3.24894 -7.42154,-4.42055 -8.46791,-4.69988 -2.49688,-0.66654 -5.4196,1.39228 -5.52146,3.8892 -0.12237,2.99685 2.70124,5.78469 9.58092,9.46003 6.1873,3.30543 6.47665,3.47585 7.2547,4.275 0.83225,0.85481 0.91565,1.7282 0.24799,2.59125 -0.89129,1.15217 -2.84717,0.45884 -9.36314,-3.32069 -4.78252,-2.77404 -6.74808,-3.57063 -8.65189,-3.50476 -1.64578,0.057 -2.61787,0.62138 -3.52502,2.04648 -0.7911,1.24284 -0.87272,2.42822 -0.26023,3.78394 0.8368,1.85222 2.53992,3.04751 9.5243,6.68435 4.9116,2.55751 6.06615,3.54602 5.70479,4.88488 -0.28543,1.05752 -1.69657,2.14614 -2.44497,1.88612 -0.30617,-0.10633 -2.07508,-0.95697 -3.93114,-1.89013 -6.64471,-3.3408 -9.11356,-3.61058 -10.29355,-1.12474 -0.78174,1.64686 -0.63087,2.07135 1.60205,4.50709 2.13533,2.32928 2.05238,2.27087 10.70059,7.54929 1.48663,0.90737 4.45101,2.8833 6.58698,4.39129 9.9974,7.05815 12.90827,8.37871 26.19696,11.88218 3.76727,0.99322 10.62741,2.93448 15.24478,4.31422 4.61737,1.37974 23.06634,13.90749 23.3444,13.92068 z"
           sodipodi:nodetypes="ccsssssccsssssscsssssssssssssssssssssssssc" />
      </g>
      <text
         xml:space="preserve"
         style="font-style:normal;font-variant:normal;font-weight:normal;font-stretch:normal;font-size:458.054px;line-height:1.25;font-family:HelvLight;-inkscape-font-specification:HelvLight;fill:#1b1b1b;fill-opacity:1;stroke:none;stroke-width:0.490772"
         x="1534.6932"
         y="154.24808"
         id="text976-2-9-4"><tspan
           sodipodi:role="line"
           id="tspan974-2-4-6"
           x="1534.6932"
           y="154.24808"
           style="font-style:normal;font-variant:normal;font-weight:normal;font-stretch:normal;font-size:458.054px;font-family:'Palatino Linotype';-inkscape-font-specification:'Palatino Linotype';fill:#ffffff;fill-opacity:1;stroke-width:0.490772">One Simi</tspan></text>
    </g>
  </g>
</svg>
